<mxfile host="Electron" modified="2024-03-25T21:28:27.567Z" agent="Mozilla/5.0 (Windows NT 10.0; Win64; x64) AppleWebKit/537.36 (KHTML, like Gecko) draw.io/24.1.0 Chrome/120.0.6099.109 Electron/28.1.0 Safari/537.36" etag="U5tyyF3YdcS8R4-fhkeT" version="24.1.0" type="device">
  <diagram id="bgZ1LQBHMBFZsN6RBe4j" name="Page-1">
    <mxGraphModel dx="1050" dy="1829" grid="1" gridSize="10" guides="1" tooltips="1" connect="1" arrows="1" fold="1" page="1" pageScale="1" pageWidth="1920" pageHeight="1200" math="0" shadow="0">
      <root>
        <mxCell id="0" />
        <mxCell id="1" parent="0" />
        <mxCell id="vF7kmwuw0M7c39ZWC5oO-1" value="" style="rounded=0;whiteSpace=wrap;html=1;fontSize=22;fillColor=#f5f5f5;fontColor=#333333;strokeColor=#666666;direction=east;strokeWidth=2;fontStyle=1" parent="1" vertex="1">
          <mxGeometry x="10" y="20" width="1700" height="1110" as="geometry" />
        </mxCell>
        <mxCell id="2WcOaWIBGYWh-LR10xef-4" value="" style="rounded=0;whiteSpace=wrap;html=1;fontSize=15;direction=south;strokeWidth=2;fontStyle=1" parent="1" vertex="1">
          <mxGeometry x="30" y="260" width="1660" height="190" as="geometry" />
        </mxCell>
        <mxCell id="2WcOaWIBGYWh-LR10xef-2" value="" style="rounded=0;whiteSpace=wrap;html=1;fontSize=15;direction=south;strokeWidth=2;fontStyle=1" parent="1" vertex="1">
          <mxGeometry x="30" y="70" width="1660" height="190" as="geometry" />
        </mxCell>
        <mxCell id="2WcOaWIBGYWh-LR10xef-1" value="" style="rounded=0;whiteSpace=wrap;html=1;fontSize=15;direction=south;strokeWidth=2;fontStyle=1" parent="1" vertex="1">
          <mxGeometry x="30" y="710" width="1660" height="390" as="geometry" />
        </mxCell>
        <mxCell id="vF7kmwuw0M7c39ZWC5oO-54" value="" style="rounded=0;whiteSpace=wrap;html=1;fontSize=15;direction=south;strokeWidth=2;fontStyle=1" parent="1" vertex="1">
          <mxGeometry x="30" y="450" width="1660" height="240" as="geometry" />
        </mxCell>
        <mxCell id="vF7kmwuw0M7c39ZWC5oO-8" style="edgeStyle=orthogonalEdgeStyle;rounded=0;orthogonalLoop=1;jettySize=auto;html=1;exitX=1;exitY=0.5;exitDx=0;exitDy=0;entryX=0;entryY=0.5;entryDx=0;entryDy=0;strokeWidth=2;strokeColor=#00CC00;fontStyle=1" parent="1" source="vF7kmwuw0M7c39ZWC5oO-3" target="vF7kmwuw0M7c39ZWC5oO-4" edge="1">
          <mxGeometry relative="1" as="geometry" />
        </mxCell>
        <mxCell id="vF7kmwuw0M7c39ZWC5oO-3" value="FILLS FORM &lt;br&gt;WITH UIN AND DEMOGRAPHIC DETAILS" style="rounded=0;whiteSpace=wrap;html=1;fontStyle=1;direction=east;strokeWidth=2;shape=parallelogram;perimeter=parallelogramPerimeter;fixedSize=1;" parent="1" vertex="1">
          <mxGeometry x="257.5" y="80" width="135" height="80" as="geometry" />
        </mxCell>
        <mxCell id="vF7kmwuw0M7c39ZWC5oO-9" style="edgeStyle=orthogonalEdgeStyle;rounded=0;orthogonalLoop=1;jettySize=auto;html=1;exitX=0.5;exitY=1;exitDx=0;exitDy=0;entryX=0.5;entryY=0;entryDx=0;entryDy=0;strokeWidth=2;fontStyle=1;strokeColor=#00CC00;" parent="1" source="vF7kmwuw0M7c39ZWC5oO-4" target="vF7kmwuw0M7c39ZWC5oO-5" edge="1">
          <mxGeometry relative="1" as="geometry" />
        </mxCell>
        <mxCell id="vF7kmwuw0M7c39ZWC5oO-4" value="FILLS FORM &lt;br&gt;WITH TRUSTED &lt;br&gt;INDIVIDUAL&#39;S &lt;br&gt;UNI AND PHONE NUMBER" style="rounded=0;whiteSpace=wrap;html=1;fontStyle=1;direction=east;strokeWidth=2;shape=parallelogram;perimeter=parallelogramPerimeter;fixedSize=1;" parent="1" vertex="1">
          <mxGeometry x="410" y="80" width="140" height="80" as="geometry" />
        </mxCell>
        <mxCell id="vF7kmwuw0M7c39ZWC5oO-36" style="edgeStyle=orthogonalEdgeStyle;rounded=0;orthogonalLoop=1;jettySize=auto;html=1;exitX=0.5;exitY=1;exitDx=0;exitDy=0;entryX=0.5;entryY=0;entryDx=0;entryDy=0;strokeWidth=2;strokeColor=#00CC00;fontStyle=1" parent="1" source="vF7kmwuw0M7c39ZWC5oO-5" target="vF7kmwuw0M7c39ZWC5oO-24" edge="1">
          <mxGeometry relative="1" as="geometry">
            <Array as="points">
              <mxPoint x="480" y="390" />
              <mxPoint x="480" y="390" />
            </Array>
          </mxGeometry>
        </mxCell>
        <mxCell id="vF7kmwuw0M7c39ZWC5oO-5" value="SUBMIT APPLICATION FORM" style="rounded=0;whiteSpace=wrap;html=1;fontStyle=1;direction=east;strokeWidth=2;" parent="1" vertex="1">
          <mxGeometry x="420" y="180" width="120" height="60" as="geometry" />
        </mxCell>
        <mxCell id="vF7kmwuw0M7c39ZWC5oO-7" value="SUBSCRIBER" style="text;html=1;align=center;verticalAlign=middle;resizable=0;points=[];autosize=1;strokeColor=none;fillColor=none;fontStyle=1;fontSize=20;strokeWidth=2;horizontal=0;" parent="1" vertex="1">
          <mxGeometry x="25" y="90" width="50" height="150" as="geometry" />
        </mxCell>
        <mxCell id="vF7kmwuw0M7c39ZWC5oO-11" value="VISIT DID CENTER&lt;br&gt;&amp;amp; COLLECT APPLICATION FORM FOR MULTIUSER OTP" style="rounded=0;whiteSpace=wrap;html=1;fontStyle=1;direction=east;strokeWidth=2;" parent="1" vertex="1">
          <mxGeometry x="265" y="210" width="120" height="215" as="geometry" />
        </mxCell>
        <mxCell id="vF7kmwuw0M7c39ZWC5oO-21" style="edgeStyle=orthogonalEdgeStyle;rounded=0;orthogonalLoop=1;jettySize=auto;html=1;exitX=0.5;exitY=0;exitDx=0;exitDy=0;entryX=0.5;entryY=1;entryDx=0;entryDy=0;strokeWidth=2;strokeColor=#00CC00;fontStyle=1" parent="1" source="vF7kmwuw0M7c39ZWC5oO-11" target="vF7kmwuw0M7c39ZWC5oO-3" edge="1">
          <mxGeometry relative="1" as="geometry">
            <mxPoint x="325" y="280" as="sourcePoint" />
          </mxGeometry>
        </mxCell>
        <mxCell id="pcr2c5WoO0c583DG9mJp-14" style="edgeStyle=orthogonalEdgeStyle;rounded=0;orthogonalLoop=1;jettySize=auto;html=1;exitX=0.5;exitY=1;exitDx=0;exitDy=0;entryX=0.5;entryY=0;entryDx=0;entryDy=0;strokeColor=#00CC00;strokeWidth=2;fontStyle=1;" parent="1" source="vF7kmwuw0M7c39ZWC5oO-16" target="vF7kmwuw0M7c39ZWC5oO-17" edge="1">
          <mxGeometry relative="1" as="geometry" />
        </mxCell>
        <mxCell id="vF7kmwuw0M7c39ZWC5oO-16" value="TRUSTED INDIVIDUAL PROVIDES CONSENT&lt;br&gt;BY BIOMETRIC AUTHENTICATION" style="rounded=0;whiteSpace=wrap;html=1;fontStyle=1;direction=east;strokeWidth=2;" parent="1" vertex="1">
          <mxGeometry x="956.5" y="296.25" width="140" height="60" as="geometry" />
        </mxCell>
        <mxCell id="MivnunldSzB1eyhNCLw8-117" value="" style="edgeStyle=orthogonalEdgeStyle;rounded=0;orthogonalLoop=1;jettySize=auto;html=1;strokeColor=#00CC00;strokeWidth=2;fontStyle=1;exitX=0.5;exitY=1;exitDx=0;exitDy=0;" parent="1" source="vF7kmwuw0M7c39ZWC5oO-17" target="MivnunldSzB1eyhNCLw8-116" edge="1">
          <mxGeometry relative="1" as="geometry">
            <Array as="points">
              <mxPoint x="1026" y="650" />
              <mxPoint x="858" y="650" />
            </Array>
          </mxGeometry>
        </mxCell>
        <mxCell id="vF7kmwuw0M7c39ZWC5oO-17" value="AUTHENTICATE&amp;nbsp; USING BIOMETRIC OF CHOICE&lt;br style=&quot;border-color: var(--border-color);&quot;&gt;-----------------------------&lt;br style=&quot;border-color: var(--border-color);&quot;&gt;&lt;u style=&quot;border-color: var(--border-color);&quot;&gt;AU.3.A,&amp;nbsp;&lt;/u&gt;&lt;u style=&quot;border-color: var(--border-color);&quot;&gt;AU.3.B&lt;/u&gt;&lt;u style=&quot;border-color: var(--border-color);&quot;&gt;,&amp;nbsp;&lt;/u&gt;&lt;u style=&quot;border-color: var(--border-color);&quot;&gt;AU.3.C&lt;/u&gt;" style="rounded=0;whiteSpace=wrap;html=1;fontStyle=1;direction=east;strokeWidth=2;" parent="1" vertex="1">
          <mxGeometry x="931.5" y="380" width="190" height="60" as="geometry" />
        </mxCell>
        <mxCell id="MivnunldSzB1eyhNCLw8-127" style="edgeStyle=orthogonalEdgeStyle;rounded=0;orthogonalLoop=1;jettySize=auto;html=1;exitX=1;exitY=0.5;exitDx=0;exitDy=0;entryX=0.5;entryY=0;entryDx=0;entryDy=0;entryPerimeter=0;strokeColor=#00CC00;strokeWidth=2;fontStyle=1;" parent="1" source="vF7kmwuw0M7c39ZWC5oO-19" target="MivnunldSzB1eyhNCLw8-124" edge="1">
          <mxGeometry relative="1" as="geometry" />
        </mxCell>
        <mxCell id="pcr2c5WoO0c583DG9mJp-24" style="edgeStyle=orthogonalEdgeStyle;rounded=0;orthogonalLoop=1;jettySize=auto;html=1;exitX=0.5;exitY=0;exitDx=0;exitDy=0;entryX=0.5;entryY=1;entryDx=0;entryDy=0;strokeColor=#00CC00;strokeWidth=2;fontStyle=1;" parent="1" source="vF7kmwuw0M7c39ZWC5oO-19" target="pcr2c5WoO0c583DG9mJp-23" edge="1">
          <mxGeometry relative="1" as="geometry" />
        </mxCell>
        <mxCell id="vF7kmwuw0M7c39ZWC5oO-19" value="RECEIVE SUCCESSFUL MULTIUSER OTP AUTHENTICATION CREATED NOTIFICATION ON EMAIL/PHONE" style="rounded=0;whiteSpace=wrap;html=1;fontStyle=1;direction=east;strokeWidth=2;" parent="1" vertex="1">
          <mxGeometry x="1180" y="358.75" width="148.25" height="71.25" as="geometry" />
        </mxCell>
        <mxCell id="vF7kmwuw0M7c39ZWC5oO-24" value="RECEIVE MULTIUSER OTP APPLICATION FORM" style="rounded=0;whiteSpace=wrap;html=1;fontStyle=1;direction=east;strokeWidth=2;" parent="1" vertex="1">
          <mxGeometry x="410" y="470" width="140" height="50" as="geometry" />
        </mxCell>
        <mxCell id="MivnunldSzB1eyhNCLw8-112" style="edgeStyle=orthogonalEdgeStyle;rounded=0;orthogonalLoop=1;jettySize=auto;html=1;exitX=0.5;exitY=0;exitDx=0;exitDy=0;entryX=0.5;entryY=1;entryDx=0;entryDy=0;strokeColor=#00CC00;strokeWidth=2;fontStyle=1;" parent="1" source="vF7kmwuw0M7c39ZWC5oO-13" target="vF7kmwuw0M7c39ZWC5oO-27" edge="1">
          <mxGeometry relative="1" as="geometry" />
        </mxCell>
        <mxCell id="MivnunldSzB1eyhNCLw8-136" style="edgeStyle=orthogonalEdgeStyle;rounded=0;orthogonalLoop=1;jettySize=auto;html=1;exitX=0.5;exitY=1;exitDx=0;exitDy=0;strokeColor=#FF2617;strokeWidth=2;fontStyle=1;" parent="1" source="vF7kmwuw0M7c39ZWC5oO-25" target="MivnunldSzB1eyhNCLw8-134" edge="1">
          <mxGeometry relative="1" as="geometry">
            <Array as="points">
              <mxPoint x="666" y="1039" />
            </Array>
          </mxGeometry>
        </mxCell>
        <mxCell id="vF7kmwuw0M7c39ZWC5oO-25" value="IF&lt;br style=&quot;font-size: 11px;&quot;&gt;SUBSCRIBER AUTHENTICATION SUCCESS" style="rounded=0;whiteSpace=wrap;html=1;fontStyle=1;direction=east;strokeWidth=2;shape=rhombus;perimeter=rhombusPerimeter;fontSize=11;" parent="1" vertex="1">
          <mxGeometry x="601.5" y="870" width="130" height="90" as="geometry" />
        </mxCell>
        <mxCell id="MivnunldSzB1eyhNCLw8-109" value="" style="edgeStyle=orthogonalEdgeStyle;rounded=0;orthogonalLoop=1;jettySize=auto;html=1;strokeColor=#00CC00;strokeWidth=2;fontStyle=1;" parent="1" source="vF7kmwuw0M7c39ZWC5oO-26" target="vF7kmwuw0M7c39ZWC5oO-25" edge="1">
          <mxGeometry relative="1" as="geometry" />
        </mxCell>
        <mxCell id="vF7kmwuw0M7c39ZWC5oO-26" value="AUTHENTICATE&amp;nbsp; USING BIOMETRIC OF CHOICE&lt;br style=&quot;border-color: var(--border-color);&quot;&gt;-----------------------------&lt;br style=&quot;border-color: var(--border-color);&quot;&gt;&lt;u&gt;AU.3.A,&amp;nbsp;&lt;/u&gt;&lt;u style=&quot;border-color: var(--border-color);&quot;&gt;AU.3.B&lt;/u&gt;&lt;u&gt;,&amp;nbsp;&lt;/u&gt;&lt;u style=&quot;border-color: var(--border-color);&quot;&gt;AU.3.C&lt;/u&gt;" style="rounded=0;whiteSpace=wrap;html=1;fontStyle=1;direction=east;strokeWidth=2;" parent="1" vertex="1">
          <mxGeometry x="568" y="110" width="195" height="80" as="geometry" />
        </mxCell>
        <mxCell id="MivnunldSzB1eyhNCLw8-113" style="edgeStyle=orthogonalEdgeStyle;rounded=0;orthogonalLoop=1;jettySize=auto;html=1;exitX=0.5;exitY=0;exitDx=0;exitDy=0;entryX=0.5;entryY=1;entryDx=0;entryDy=0;strokeColor=#00CC00;strokeWidth=2;fontStyle=1;" parent="1" source="vF7kmwuw0M7c39ZWC5oO-27" target="MivnunldSzB1eyhNCLw8-119" edge="1">
          <mxGeometry relative="1" as="geometry" />
        </mxCell>
        <mxCell id="vF7kmwuw0M7c39ZWC5oO-27" value="REQUEST CONSENT FROM TRUSTED INDIVIDUAL" style="rounded=0;whiteSpace=wrap;html=1;fontStyle=1;direction=east;strokeWidth=2;" parent="1" vertex="1">
          <mxGeometry x="763" y="475" width="130" height="60" as="geometry" />
        </mxCell>
        <mxCell id="vF7kmwuw0M7c39ZWC5oO-29" value="STORE TRUSTED INDIVIDUAL&#39;S PHONE NUMBER IN SUBSCRIBER&#39;S UIN ACCOUNT&lt;br&gt;WITH ENCRYPTION AND HASHING" style="rounded=0;whiteSpace=wrap;html=1;fontStyle=1;strokeWidth=2;" parent="1" vertex="1">
          <mxGeometry x="998" y="850" width="210" height="110" as="geometry" />
        </mxCell>
        <mxCell id="MivnunldSzB1eyhNCLw8-122" style="edgeStyle=orthogonalEdgeStyle;rounded=0;orthogonalLoop=1;jettySize=auto;html=1;exitX=1;exitY=0.5;exitDx=0;exitDy=0;exitPerimeter=0;entryX=0.5;entryY=1;entryDx=0;entryDy=0;strokeColor=#00CC00;strokeWidth=2;fontStyle=1;" parent="1" source="vF7kmwuw0M7c39ZWC5oO-29" target="vF7kmwuw0M7c39ZWC5oO-19" edge="1">
          <mxGeometry relative="1" as="geometry">
            <mxPoint x="1360.5" y="830.25" as="sourcePoint" />
          </mxGeometry>
        </mxCell>
        <mxCell id="vF7kmwuw0M7c39ZWC5oO-32" value="&lt;span style=&quot;background-color: initial; font-size: 20px;&quot;&gt;TRUSTED&lt;/span&gt;&lt;br style=&quot;font-size: 20px;&quot;&gt;&lt;div style=&quot;font-size: 20px;&quot;&gt;&lt;span style=&quot;background-color: initial; font-size: 20px;&quot;&gt;&amp;nbsp;INDIVIDUAL&amp;nbsp;&lt;/span&gt;&lt;/div&gt;" style="text;html=1;align=center;verticalAlign=middle;resizable=0;points=[];autosize=1;strokeColor=none;fillColor=none;fontStyle=1;fontSize=20;strokeWidth=2;horizontal=0;" parent="1" vertex="1">
          <mxGeometry x="29" y="290" width="70" height="140" as="geometry" />
        </mxCell>
        <mxCell id="vF7kmwuw0M7c39ZWC5oO-33" value="&lt;font style=&quot;font-size: 21px;&quot;&gt;PUBLIC&amp;nbsp;&lt;span style=&quot;font-size: 23px;&quot;&gt;NETWORK&lt;/span&gt;&lt;br style=&quot;border-color: var(--border-color); font-size: 23px;&quot;&gt;&lt;span style=&quot;font-size: 23px;&quot;&gt;SYSTEMS&amp;nbsp;&lt;/span&gt;&lt;span style=&quot;font-size: 23px;&quot;&gt;(CLIENT)&lt;/span&gt;&lt;br&gt;&lt;/font&gt;" style="text;html=1;align=center;verticalAlign=middle;resizable=0;points=[];autosize=1;strokeColor=none;fillColor=none;fontStyle=1;fontSize=20;strokeWidth=2;horizontal=0;" parent="1" vertex="1">
          <mxGeometry x="26" y="454" width="80" height="230" as="geometry" />
        </mxCell>
        <mxCell id="vF7kmwuw0M7c39ZWC5oO-34" value="PRIVATE NETWORK&lt;br style=&quot;border-color: var(--border-color);&quot;&gt;SYSTEMS (SERVER)" style="text;html=1;align=center;verticalAlign=middle;resizable=0;points=[];autosize=1;strokeColor=none;fillColor=none;fontStyle=1;fontSize=20;strokeWidth=2;horizontal=0;" parent="1" vertex="1">
          <mxGeometry x="28" y="819.5" width="80" height="240" as="geometry" />
        </mxCell>
        <mxCell id="vF7kmwuw0M7c39ZWC5oO-57" value="CREATION OF MULTI-USER ONE-TIME PASSWORD" style="text;html=1;align=center;verticalAlign=middle;resizable=0;points=[];autosize=1;strokeColor=none;fillColor=none;fontStyle=1;fontSize=26;strokeWidth=2;" parent="1" vertex="1">
          <mxGeometry x="1038" y="25" width="660" height="40" as="geometry" />
        </mxCell>
        <mxCell id="vF7kmwuw0M7c39ZWC5oO-58" value="AU.2" style="text;html=1;align=center;verticalAlign=middle;resizable=0;points=[];autosize=1;strokeColor=none;fillColor=none;fontStyle=1;fontSize=26;strokeWidth=2;" parent="1" vertex="1">
          <mxGeometry x="815" y="25" width="80" height="40" as="geometry" />
        </mxCell>
        <mxCell id="vF7kmwuw0M7c39ZWC5oO-59" value="B" style="ellipse;whiteSpace=wrap;html=1;aspect=fixed;fontStyle=1;strokeWidth=2;fontSize=26;" parent="1" vertex="1">
          <mxGeometry x="30" y="30" width="30" height="30" as="geometry" />
        </mxCell>
        <mxCell id="MivnunldSzB1eyhNCLw8-104" value="" style="edgeStyle=orthogonalEdgeStyle;rounded=0;orthogonalLoop=1;jettySize=auto;html=1;strokeColor=#00CC00;strokeWidth=2;fontStyle=1;exitX=1;exitY=0.5;exitDx=0;exitDy=0;exitPerimeter=0;" parent="1" source="MivnunldSzB1eyhNCLw8-103" target="vF7kmwuw0M7c39ZWC5oO-11" edge="1">
          <mxGeometry relative="1" as="geometry">
            <Array as="points">
              <mxPoint x="240" y="318" />
              <mxPoint x="240" y="318" />
            </Array>
          </mxGeometry>
        </mxCell>
        <mxCell id="MivnunldSzB1eyhNCLw8-103" value="&lt;b style=&quot;font-size: 11px;&quot;&gt;START&lt;br&gt;(OFFLINE)&lt;br&gt;&lt;/b&gt;" style="strokeWidth=2;html=1;shape=mxgraph.flowchart.terminator;whiteSpace=wrap;fillColor=#d5e8d4;strokeColor=#82b366;fontSize=11;" parent="1" vertex="1">
          <mxGeometry x="130" y="297.5" width="100" height="40" as="geometry" />
        </mxCell>
        <mxCell id="MivnunldSzB1eyhNCLw8-108" value="" style="edgeStyle=orthogonalEdgeStyle;rounded=0;orthogonalLoop=1;jettySize=auto;html=1;exitX=0.5;exitY=1;exitDx=0;exitDy=0;entryX=0.5;entryY=0;entryDx=0;entryDy=0;strokeColor=#00CC00;strokeWidth=2;fontStyle=1;" parent="1" source="vF7kmwuw0M7c39ZWC5oO-24" target="vF7kmwuw0M7c39ZWC5oO-28" edge="1">
          <mxGeometry relative="1" as="geometry">
            <mxPoint x="480" y="540" as="sourcePoint" />
            <mxPoint x="480" y="670" as="targetPoint" />
          </mxGeometry>
        </mxCell>
        <mxCell id="vF7kmwuw0M7c39ZWC5oO-28" value="ENTERS SUBSCRIBER UIN AND DEMOGRAPHIC DETAILS" style="rounded=0;whiteSpace=wrap;html=1;fontStyle=1;direction=east;strokeWidth=2;" parent="1" vertex="1">
          <mxGeometry x="400" y="542" width="160" height="50" as="geometry" />
        </mxCell>
        <mxCell id="MivnunldSzB1eyhNCLw8-114" value="" style="edgeStyle=orthogonalEdgeStyle;rounded=0;orthogonalLoop=1;jettySize=auto;html=1;exitX=1;exitY=0.5;exitDx=0;exitDy=0;entryX=0.5;entryY=1;entryDx=0;entryDy=0;strokeColor=#00CC00;strokeWidth=2;fontStyle=1;" parent="1" source="vF7kmwuw0M7c39ZWC5oO-25" target="vF7kmwuw0M7c39ZWC5oO-13" edge="1">
          <mxGeometry relative="1" as="geometry">
            <mxPoint x="545" y="865" as="sourcePoint" />
            <mxPoint x="660" y="535" as="targetPoint" />
            <Array as="points">
              <mxPoint x="828" y="915" />
            </Array>
          </mxGeometry>
        </mxCell>
        <mxCell id="vF7kmwuw0M7c39ZWC5oO-13" value="IF TRUSTED INDIVIDUAL&#39;S UIN PROVIDED" style="rounded=0;whiteSpace=wrap;html=1;fontStyle=1;direction=east;strokeWidth=2;shape=rhombus;perimeter=rhombusPerimeter;fontSize=11;" parent="1" vertex="1">
          <mxGeometry x="770.5" y="560" width="115" height="80" as="geometry" />
        </mxCell>
        <mxCell id="MivnunldSzB1eyhNCLw8-118" value="" style="edgeStyle=orthogonalEdgeStyle;rounded=0;orthogonalLoop=1;jettySize=auto;html=1;exitX=1;exitY=0.5;exitDx=0;exitDy=0;entryX=0;entryY=0.5;entryDx=0;entryDy=0;strokeColor=#00CC00;strokeWidth=2;fontStyle=1;" parent="1" source="MivnunldSzB1eyhNCLw8-116" target="gTgN-q0qI4qXBzYvAIb3-1" edge="1">
          <mxGeometry relative="1" as="geometry" />
        </mxCell>
        <mxCell id="MivnunldSzB1eyhNCLw8-135" style="edgeStyle=orthogonalEdgeStyle;rounded=0;orthogonalLoop=1;jettySize=auto;html=1;exitX=0.5;exitY=1;exitDx=0;exitDy=0;strokeColor=#FF2617;strokeWidth=2;fontStyle=1;entryX=0;entryY=0.5;entryDx=0;entryDy=0;entryPerimeter=0;" parent="1" source="MivnunldSzB1eyhNCLw8-116" target="MivnunldSzB1eyhNCLw8-134" edge="1">
          <mxGeometry relative="1" as="geometry">
            <Array as="points">
              <mxPoint x="858" y="1040" />
              <mxPoint x="1068" y="1040" />
              <mxPoint x="1068" y="1039" />
            </Array>
          </mxGeometry>
        </mxCell>
        <mxCell id="MivnunldSzB1eyhNCLw8-116" value="&lt;font style=&quot;font-size: 11px;&quot;&gt;IF TRUSTED &lt;br&gt;INDIVIDUAL&#39;S AUTH. SUCCESS&lt;/font&gt;" style="rounded=0;whiteSpace=wrap;html=1;fontStyle=1;direction=east;strokeWidth=2;shape=rhombus;perimeter=rhombusPerimeter;fontSize=11;" parent="1" vertex="1">
          <mxGeometry x="793" y="935" width="130" height="90" as="geometry" />
        </mxCell>
        <mxCell id="MivnunldSzB1eyhNCLw8-120" style="edgeStyle=orthogonalEdgeStyle;rounded=0;orthogonalLoop=1;jettySize=auto;html=1;exitX=1;exitY=0.5;exitDx=0;exitDy=0;entryX=0;entryY=0.5;entryDx=0;entryDy=0;strokeColor=#00CC00;strokeWidth=2;fontStyle=1;" parent="1" source="MivnunldSzB1eyhNCLw8-119" target="vF7kmwuw0M7c39ZWC5oO-16" edge="1">
          <mxGeometry relative="1" as="geometry" />
        </mxCell>
        <mxCell id="MivnunldSzB1eyhNCLw8-119" value="IF TRUSTED INDIVIDUAL&#39;S AGREES TO CONSENT" style="rounded=0;whiteSpace=wrap;html=1;fontStyle=1;direction=east;strokeWidth=2;shape=rhombus;perimeter=rhombusPerimeter;fontSize=11;" parent="1" vertex="1">
          <mxGeometry x="764" y="280" width="127.5" height="92.5" as="geometry" />
        </mxCell>
        <mxCell id="MivnunldSzB1eyhNCLw8-123" value="" style="edgeStyle=orthogonalEdgeStyle;rounded=0;orthogonalLoop=1;jettySize=auto;html=1;strokeColor=#00CC00;fontStyle=1;strokeWidth=2;" parent="1" source="MivnunldSzB1eyhNCLw8-124" target="MivnunldSzB1eyhNCLw8-125" edge="1">
          <mxGeometry relative="1" as="geometry" />
        </mxCell>
        <mxCell id="MivnunldSzB1eyhNCLw8-124" value="LOGS THE PROCESS AND STATUS" style="rounded=0;whiteSpace=wrap;html=1;fontStyle=1;strokeWidth=2;" parent="1" vertex="1">
          <mxGeometry x="1508" y="870" width="120" height="54" as="geometry" />
        </mxCell>
        <mxCell id="MivnunldSzB1eyhNCLw8-125" value="&lt;b&gt;END&lt;/b&gt;" style="strokeWidth=2;html=1;shape=mxgraph.flowchart.terminator;whiteSpace=wrap;fillColor=#f8cecc;strokeColor=#b85450;" parent="1" vertex="1">
          <mxGeometry x="1518" y="969.25" width="100" height="40" as="geometry" />
        </mxCell>
        <mxCell id="MivnunldSzB1eyhNCLw8-126" value="IDA" style="ellipse;whiteSpace=wrap;html=1;fillColor=#dae8fc;strokeColor=#6c8ebf;gradientColor=#7ea6e0;fontStyle=1" parent="1" vertex="1">
          <mxGeometry x="1508" y="844" width="30" height="26" as="geometry" />
        </mxCell>
        <mxCell id="MivnunldSzB1eyhNCLw8-129" value="IDA" style="ellipse;whiteSpace=wrap;html=1;fillColor=#dae8fc;strokeColor=#6c8ebf;gradientColor=#7ea6e0;fontStyle=1" parent="1" vertex="1">
          <mxGeometry x="998" y="824" width="30" height="26" as="geometry" />
        </mxCell>
        <mxCell id="MivnunldSzB1eyhNCLw8-130" value="KM" style="ellipse;whiteSpace=wrap;html=1;fillColor=#dae8fc;strokeColor=#6c8ebf;gradientColor=#7ea6e0;fontStyle=1" parent="1" vertex="1">
          <mxGeometry x="968" y="859" width="30" height="26" as="geometry" />
        </mxCell>
        <mxCell id="MivnunldSzB1eyhNCLw8-131" value="HSM" style="ellipse;whiteSpace=wrap;html=1;fillColor=#dae8fc;strokeColor=#6c8ebf;gradientColor=#7ea6e0;fontStyle=1" parent="1" vertex="1">
          <mxGeometry x="968" y="909" width="30" height="26" as="geometry" />
        </mxCell>
        <mxCell id="pcr2c5WoO0c583DG9mJp-28" style="edgeStyle=orthogonalEdgeStyle;rounded=0;orthogonalLoop=1;jettySize=auto;html=1;exitX=0.5;exitY=0;exitDx=0;exitDy=0;exitPerimeter=0;entryX=0.5;entryY=1;entryDx=0;entryDy=0;strokeColor=#00CC00;strokeWidth=2;fontStyle=1;jumpStyle=arc;jumpSize=11;" parent="1" source="MivnunldSzB1eyhNCLw8-134" target="pcr2c5WoO0c583DG9mJp-26" edge="1">
          <mxGeometry relative="1" as="geometry" />
        </mxCell>
        <mxCell id="MivnunldSzB1eyhNCLw8-134" value="&lt;span style=&quot;border-color: var(--border-color);&quot;&gt;&lt;b&gt;TERMINATE PROCESS:&lt;br&gt;&lt;/b&gt;LOCK UIN ACCOUNT FOR 24 HOURS&lt;br&gt;&lt;/span&gt;" style="strokeWidth=2;html=1;shape=mxgraph.flowchart.terminator;whiteSpace=wrap;fillColor=#f8cecc;strokeColor=#b85450;" parent="1" vertex="1">
          <mxGeometry x="1304.12" y="1014.5" width="220" height="49" as="geometry" />
        </mxCell>
        <mxCell id="MivnunldSzB1eyhNCLw8-137" value="KR" style="ellipse;whiteSpace=wrap;html=1;fillColor=#dae8fc;strokeColor=#6c8ebf;gradientColor=#7ea6e0;fontStyle=1" parent="1" vertex="1">
          <mxGeometry x="1288" y="999.5" width="30" height="26" as="geometry" />
        </mxCell>
        <mxCell id="uguF6MeAyuZhbsfF8n8q-3" value="NOTIFICATION GENERATOR" style="rounded=0;whiteSpace=wrap;html=1;fontStyle=1;strokeWidth=2;fontSize=11;fillColor=default;strokeColor=default;" parent="1" vertex="1">
          <mxGeometry x="1180" y="760" width="281.75" height="33" as="geometry" />
        </mxCell>
        <mxCell id="uguF6MeAyuZhbsfF8n8q-4" value="&lt;font style=&quot;font-size: 14px;&quot;&gt;PUBLIC NETWORK&lt;/font&gt;" style="swimlane;whiteSpace=wrap;html=1;" parent="1" vertex="1">
          <mxGeometry x="1710" y="450" width="200" height="167" as="geometry" />
        </mxCell>
        <mxCell id="uguF6MeAyuZhbsfF8n8q-5" value="DNS SERVERS" style="text;html=1;strokeColor=none;fillColor=none;align=center;verticalAlign=middle;whiteSpace=wrap;rounded=0;fontSize=14;" parent="uguF6MeAyuZhbsfF8n8q-4" vertex="1">
          <mxGeometry y="27" width="200" height="28" as="geometry" />
        </mxCell>
        <mxCell id="uguF6MeAyuZhbsfF8n8q-6" value="FTP SERVERS" style="text;html=1;strokeColor=none;fillColor=none;align=center;verticalAlign=middle;whiteSpace=wrap;rounded=0;fontSize=14;" parent="uguF6MeAyuZhbsfF8n8q-4" vertex="1">
          <mxGeometry y="55" width="200" height="28" as="geometry" />
        </mxCell>
        <mxCell id="uguF6MeAyuZhbsfF8n8q-7" value="MAIL SERVERS" style="text;html=1;strokeColor=none;fillColor=none;align=center;verticalAlign=middle;whiteSpace=wrap;rounded=0;fontSize=14;" parent="uguF6MeAyuZhbsfF8n8q-4" vertex="1">
          <mxGeometry y="83" width="200" height="28" as="geometry" />
        </mxCell>
        <mxCell id="uguF6MeAyuZhbsfF8n8q-8" value="PROXY SERVERS" style="text;html=1;strokeColor=none;fillColor=none;align=center;verticalAlign=middle;whiteSpace=wrap;rounded=0;fontSize=14;" parent="uguF6MeAyuZhbsfF8n8q-4" vertex="1">
          <mxGeometry y="111" width="200" height="28" as="geometry" />
        </mxCell>
        <mxCell id="uguF6MeAyuZhbsfF8n8q-9" value="WEB SERVERS" style="text;html=1;strokeColor=none;fillColor=none;align=center;verticalAlign=middle;whiteSpace=wrap;rounded=0;fontSize=14;" parent="uguF6MeAyuZhbsfF8n8q-4" vertex="1">
          <mxGeometry y="139" width="200" height="28" as="geometry" />
        </mxCell>
        <mxCell id="e87WbiXprWmDAfo9UqIb-1" value="USER" style="shape=umlActor;verticalLabelPosition=bottom;verticalAlign=top;html=1;outlineConnect=0;fontStyle=1" parent="1" vertex="1">
          <mxGeometry x="120" y="120" width="30" height="60" as="geometry" />
        </mxCell>
        <mxCell id="e87WbiXprWmDAfo9UqIb-3" value="ADMIN" style="shape=umlActor;verticalLabelPosition=bottom;verticalAlign=top;html=1;outlineConnect=0;fontStyle=1" parent="1" vertex="1">
          <mxGeometry x="118" y="530" width="30" height="60" as="geometry" />
        </mxCell>
        <mxCell id="e87WbiXprWmDAfo9UqIb-5" value="" style="edgeStyle=orthogonalEdgeStyle;rounded=0;orthogonalLoop=1;jettySize=auto;html=1;exitX=0.5;exitY=1;exitDx=0;exitDy=0;entryX=0.5;entryY=0;entryDx=0;entryDy=0;strokeColor=#00CC00;strokeWidth=2;fontStyle=1;" parent="1" source="vF7kmwuw0M7c39ZWC5oO-28" target="e87WbiXprWmDAfo9UqIb-4" edge="1">
          <mxGeometry relative="1" as="geometry">
            <mxPoint x="480" y="590" as="sourcePoint" />
            <mxPoint x="480" y="814" as="targetPoint" />
          </mxGeometry>
        </mxCell>
        <mxCell id="pcr2c5WoO0c583DG9mJp-10" style="edgeStyle=orthogonalEdgeStyle;rounded=0;orthogonalLoop=1;jettySize=auto;html=1;exitX=0.5;exitY=1;exitDx=0;exitDy=0;strokeColor=#00CC00;strokeWidth=2;fontStyle=1;" parent="1" source="e87WbiXprWmDAfo9UqIb-4" target="pcr2c5WoO0c583DG9mJp-9" edge="1">
          <mxGeometry relative="1" as="geometry" />
        </mxCell>
        <mxCell id="e87WbiXprWmDAfo9UqIb-4" value="MASKING &amp;amp; ENCRYPT UIN AND DEMOGRAPHIC DETAILS FOR AUTHENTICATION" style="rounded=0;whiteSpace=wrap;html=1;fontStyle=1;direction=east;strokeWidth=2;" parent="1" vertex="1">
          <mxGeometry x="400" y="610" width="160" height="60" as="geometry" />
        </mxCell>
        <mxCell id="e87WbiXprWmDAfo9UqIb-6" value="KM" style="ellipse;whiteSpace=wrap;html=1;fillColor=#dae8fc;strokeColor=#6c8ebf;gradientColor=#7ea6e0;fontStyle=1" parent="1" vertex="1">
          <mxGeometry x="370" y="600" width="30" height="26" as="geometry" />
        </mxCell>
        <mxCell id="e87WbiXprWmDAfo9UqIb-7" value="HSM" style="ellipse;whiteSpace=wrap;html=1;fillColor=#dae8fc;strokeColor=#6c8ebf;gradientColor=#7ea6e0;fontStyle=1" parent="1" vertex="1">
          <mxGeometry x="370" y="626" width="30" height="26" as="geometry" />
        </mxCell>
        <mxCell id="e87WbiXprWmDAfo9UqIb-8" value="CA" style="ellipse;whiteSpace=wrap;html=1;fillColor=#dae8fc;strokeColor=#6c8ebf;gradientColor=#7ea6e0;fontStyle=1" parent="1" vertex="1">
          <mxGeometry x="370" y="652" width="30" height="26" as="geometry" />
        </mxCell>
        <mxCell id="e87WbiXprWmDAfo9UqIb-9" value="&lt;font style=&quot;font-size: 14px;&quot;&gt;LEGEND&lt;/font&gt;" style="swimlane;whiteSpace=wrap;html=1;" parent="1" vertex="1">
          <mxGeometry x="1710" y="20" width="200" height="230" as="geometry" />
        </mxCell>
        <mxCell id="e87WbiXprWmDAfo9UqIb-10" value="KM" style="ellipse;whiteSpace=wrap;html=1;fillColor=#dae8fc;strokeColor=#6c8ebf;gradientColor=#7ea6e0;fontStyle=1" parent="e87WbiXprWmDAfo9UqIb-9" vertex="1">
          <mxGeometry x="10" y="30" width="30" height="26" as="geometry" />
        </mxCell>
        <mxCell id="e87WbiXprWmDAfo9UqIb-11" value="IDA" style="ellipse;whiteSpace=wrap;html=1;fillColor=#dae8fc;strokeColor=#6c8ebf;gradientColor=#7ea6e0;fontStyle=1" parent="e87WbiXprWmDAfo9UqIb-9" vertex="1">
          <mxGeometry x="10" y="131" width="30" height="26" as="geometry" />
        </mxCell>
        <mxCell id="e87WbiXprWmDAfo9UqIb-12" value="HSM" style="ellipse;whiteSpace=wrap;html=1;fillColor=#dae8fc;strokeColor=#6c8ebf;gradientColor=#7ea6e0;fontStyle=1" parent="e87WbiXprWmDAfo9UqIb-9" vertex="1">
          <mxGeometry x="10" y="91" width="30" height="26" as="geometry" />
        </mxCell>
        <mxCell id="e87WbiXprWmDAfo9UqIb-13" value="KR" style="ellipse;whiteSpace=wrap;html=1;fillColor=#dae8fc;strokeColor=#6c8ebf;gradientColor=#7ea6e0;fontStyle=1" parent="e87WbiXprWmDAfo9UqIb-9" vertex="1">
          <mxGeometry x="10" y="59" width="30" height="26" as="geometry" />
        </mxCell>
        <mxCell id="e87WbiXprWmDAfo9UqIb-14" value="Key Manager" style="text;html=1;strokeColor=none;fillColor=none;align=center;verticalAlign=middle;whiteSpace=wrap;rounded=0;fontSize=14;" parent="e87WbiXprWmDAfo9UqIb-9" vertex="1">
          <mxGeometry x="40" y="30" width="160" height="28" as="geometry" />
        </mxCell>
        <mxCell id="e87WbiXprWmDAfo9UqIb-15" value="Key Revocation" style="text;html=1;strokeColor=none;fillColor=none;align=center;verticalAlign=middle;whiteSpace=wrap;rounded=0;fontSize=14;" parent="e87WbiXprWmDAfo9UqIb-9" vertex="1">
          <mxGeometry x="40" y="58" width="160" height="28" as="geometry" />
        </mxCell>
        <mxCell id="e87WbiXprWmDAfo9UqIb-16" value="Hardware Security Module" style="text;html=1;strokeColor=none;fillColor=none;align=center;verticalAlign=middle;whiteSpace=wrap;rounded=0;fontSize=14;" parent="e87WbiXprWmDAfo9UqIb-9" vertex="1">
          <mxGeometry x="40" y="90" width="160" height="28" as="geometry" />
        </mxCell>
        <mxCell id="e87WbiXprWmDAfo9UqIb-17" value="ID Authentication (DB)" style="text;html=1;strokeColor=none;fillColor=none;align=center;verticalAlign=middle;whiteSpace=wrap;rounded=0;fontSize=14;" parent="e87WbiXprWmDAfo9UqIb-9" vertex="1">
          <mxGeometry x="40" y="130" width="160" height="28" as="geometry" />
        </mxCell>
        <mxCell id="e87WbiXprWmDAfo9UqIb-18" value="AC" style="ellipse;whiteSpace=wrap;html=1;fillColor=#dae8fc;strokeColor=#6c8ebf;gradientColor=#7ea6e0;fontStyle=1" parent="e87WbiXprWmDAfo9UqIb-9" vertex="1">
          <mxGeometry x="10" y="161" width="30" height="26" as="geometry" />
        </mxCell>
        <mxCell id="e87WbiXprWmDAfo9UqIb-19" value="Access Control" style="text;html=1;strokeColor=none;fillColor=none;align=center;verticalAlign=middle;whiteSpace=wrap;rounded=0;fontSize=14;" parent="e87WbiXprWmDAfo9UqIb-9" vertex="1">
          <mxGeometry x="40" y="160" width="160" height="28" as="geometry" />
        </mxCell>
        <mxCell id="e87WbiXprWmDAfo9UqIb-20" value="Certificate Authority" style="text;html=1;strokeColor=none;fillColor=none;align=center;verticalAlign=middle;whiteSpace=wrap;rounded=0;fontSize=14;" parent="e87WbiXprWmDAfo9UqIb-9" vertex="1">
          <mxGeometry x="40" y="190" width="160" height="28" as="geometry" />
        </mxCell>
        <mxCell id="e87WbiXprWmDAfo9UqIb-21" value="CA" style="ellipse;whiteSpace=wrap;html=1;fillColor=#dae8fc;strokeColor=#6c8ebf;gradientColor=#7ea6e0;fontStyle=1" parent="e87WbiXprWmDAfo9UqIb-9" vertex="1">
          <mxGeometry x="10" y="191" width="30" height="26" as="geometry" />
        </mxCell>
        <mxCell id="pcr2c5WoO0c583DG9mJp-3" style="edgeStyle=orthogonalEdgeStyle;rounded=0;orthogonalLoop=1;jettySize=auto;html=1;exitX=1;exitY=0.5;exitDx=0;exitDy=0;exitPerimeter=0;strokeColor=#00CC00;strokeWidth=2;fontStyle=1;" parent="1" source="pcr2c5WoO0c583DG9mJp-1" target="MivnunldSzB1eyhNCLw8-124" edge="1">
          <mxGeometry relative="1" as="geometry" />
        </mxCell>
        <mxCell id="pcr2c5WoO0c583DG9mJp-1" value="&lt;span style=&quot;border-color: var(--border-color);&quot;&gt;&lt;b&gt;TERMINATE PROCESS&lt;/b&gt;&lt;br&gt;&lt;/span&gt;" style="strokeWidth=2;html=1;shape=mxgraph.flowchart.terminator;whiteSpace=wrap;fillColor=#f8cecc;strokeColor=#b85450;" parent="1" vertex="1">
          <mxGeometry x="980" y="80" width="220" height="49" as="geometry" />
        </mxCell>
        <mxCell id="pcr2c5WoO0c583DG9mJp-2" style="edgeStyle=orthogonalEdgeStyle;rounded=0;orthogonalLoop=1;jettySize=auto;html=1;exitX=0.5;exitY=0;exitDx=0;exitDy=0;entryX=0;entryY=0.5;entryDx=0;entryDy=0;entryPerimeter=0;strokeColor=#FF2617;strokeWidth=2;fontStyle=1;" parent="1" source="MivnunldSzB1eyhNCLw8-119" target="pcr2c5WoO0c583DG9mJp-1" edge="1">
          <mxGeometry relative="1" as="geometry" />
        </mxCell>
        <mxCell id="pcr2c5WoO0c583DG9mJp-4" style="edgeStyle=orthogonalEdgeStyle;rounded=0;orthogonalLoop=1;jettySize=auto;html=1;exitX=1;exitY=0.5;exitDx=0;exitDy=0;entryX=0;entryY=0.5;entryDx=0;entryDy=0;entryPerimeter=0;strokeColor=#FF2617;strokeWidth=2;fontStyle=1;jumpStyle=arc;jumpSize=11;" parent="1" source="vF7kmwuw0M7c39ZWC5oO-13" target="pcr2c5WoO0c583DG9mJp-1" edge="1">
          <mxGeometry relative="1" as="geometry">
            <Array as="points">
              <mxPoint x="910" y="600" />
              <mxPoint x="910" y="105" />
            </Array>
          </mxGeometry>
        </mxCell>
        <mxCell id="pcr2c5WoO0c583DG9mJp-5" value="&lt;b style=&quot;font-size: 11px;&quot;&gt;CONTINUE:&lt;br&gt;UPDATE&lt;br&gt;&lt;/b&gt;" style="strokeWidth=2;html=1;shape=mxgraph.flowchart.terminator;whiteSpace=wrap;fillColor=#e1d5e7;strokeColor=#9673a6;fontSize=11;" parent="1" vertex="1">
          <mxGeometry x="130" y="372.5" width="100" height="40" as="geometry" />
        </mxCell>
        <mxCell id="pcr2c5WoO0c583DG9mJp-7" style="edgeStyle=orthogonalEdgeStyle;rounded=0;orthogonalLoop=1;jettySize=auto;html=1;exitX=1;exitY=0.5;exitDx=0;exitDy=0;exitPerimeter=0;entryX=-0.002;entryY=0.852;entryDx=0;entryDy=0;entryPerimeter=0;strokeColor=#9673a6;strokeWidth=2;fontStyle=1;fillColor=#e1d5e7;" parent="1" source="pcr2c5WoO0c583DG9mJp-5" target="vF7kmwuw0M7c39ZWC5oO-11" edge="1">
          <mxGeometry relative="1" as="geometry" />
        </mxCell>
        <mxCell id="pcr2c5WoO0c583DG9mJp-8" value="AC" style="ellipse;whiteSpace=wrap;html=1;fillColor=#dae8fc;strokeColor=#6c8ebf;gradientColor=#7ea6e0;fontStyle=1" parent="1" vertex="1">
          <mxGeometry x="610" y="870" width="30" height="26" as="geometry" />
        </mxCell>
        <mxCell id="pcr2c5WoO0c583DG9mJp-13" style="edgeStyle=orthogonalEdgeStyle;rounded=0;orthogonalLoop=1;jettySize=auto;html=1;exitX=0.5;exitY=1;exitDx=0;exitDy=0;entryX=0.5;entryY=0;entryDx=0;entryDy=0;strokeColor=#FF2617;strokeWidth=2;fontStyle=1;" parent="1" source="pcr2c5WoO0c583DG9mJp-16" target="pcr2c5WoO0c583DG9mJp-12" edge="1">
          <mxGeometry relative="1" as="geometry">
            <Array as="points">
              <mxPoint x="480" y="930" />
              <mxPoint x="480" y="930" />
            </Array>
          </mxGeometry>
        </mxCell>
        <mxCell id="pcr2c5WoO0c583DG9mJp-15" value="RESET &lt;br&gt;COUNTER" style="edgeStyle=orthogonalEdgeStyle;rounded=0;orthogonalLoop=1;jettySize=auto;html=1;exitX=1;exitY=0.5;exitDx=0;exitDy=0;entryX=0.25;entryY=1;entryDx=0;entryDy=0;strokeColor=#00CC00;strokeWidth=2;fontStyle=1;" parent="1" source="pcr2c5WoO0c583DG9mJp-9" target="vF7kmwuw0M7c39ZWC5oO-26" edge="1">
          <mxGeometry x="-0.7228" relative="1" as="geometry">
            <mxPoint as="offset" />
          </mxGeometry>
        </mxCell>
        <mxCell id="pcr2c5WoO0c583DG9mJp-9" value="IF&lt;br style=&quot;font-size: 11px;&quot;&gt;SUBSCRIBER &lt;br&gt;DETAILS MATCH" style="rounded=0;whiteSpace=wrap;html=1;fontStyle=1;direction=east;strokeWidth=2;shape=rhombus;perimeter=rhombusPerimeter;fontSize=11;" parent="1" vertex="1">
          <mxGeometry x="415" y="793" width="130" height="90" as="geometry" />
        </mxCell>
        <mxCell id="pcr2c5WoO0c583DG9mJp-11" value="AC" style="ellipse;whiteSpace=wrap;html=1;fillColor=#dae8fc;strokeColor=#6c8ebf;gradientColor=#7ea6e0;fontStyle=1" parent="1" vertex="1">
          <mxGeometry x="430" y="793.5" width="30" height="26" as="geometry" />
        </mxCell>
        <mxCell id="pcr2c5WoO0c583DG9mJp-21" style="edgeStyle=orthogonalEdgeStyle;rounded=0;orthogonalLoop=1;jettySize=auto;html=1;exitX=0;exitY=0.5;exitDx=0;exitDy=0;entryX=0;entryY=0.5;entryDx=0;entryDy=0;strokeColor=#00CC00;strokeWidth=2;fontStyle=1;" parent="1" source="pcr2c5WoO0c583DG9mJp-12" target="vF7kmwuw0M7c39ZWC5oO-28" edge="1">
          <mxGeometry relative="1" as="geometry">
            <Array as="points">
              <mxPoint x="435" y="1040" />
              <mxPoint x="350" y="1040" />
              <mxPoint x="350" y="567" />
            </Array>
          </mxGeometry>
        </mxCell>
        <mxCell id="pcr2c5WoO0c583DG9mJp-22" style="edgeStyle=orthogonalEdgeStyle;rounded=0;orthogonalLoop=1;jettySize=auto;html=1;exitX=1;exitY=0.5;exitDx=0;exitDy=0;strokeColor=#FF2617;strokeWidth=2;fontStyle=1;" parent="1" source="pcr2c5WoO0c583DG9mJp-12" target="MivnunldSzB1eyhNCLw8-134" edge="1">
          <mxGeometry relative="1" as="geometry" />
        </mxCell>
        <mxCell id="pcr2c5WoO0c583DG9mJp-12" value="IF RETRY COUNT&amp;lt;=3" style="rounded=0;whiteSpace=wrap;html=1;fontStyle=1;direction=east;strokeWidth=2;shape=rhombus;perimeter=rhombusPerimeter;fontSize=11;" parent="1" vertex="1">
          <mxGeometry x="434.5" y="1004.5" width="91" height="70" as="geometry" />
        </mxCell>
        <mxCell id="pcr2c5WoO0c583DG9mJp-17" value="AC" style="ellipse;whiteSpace=wrap;html=1;fillColor=#dae8fc;strokeColor=#6c8ebf;gradientColor=#7ea6e0;fontStyle=1" parent="1" vertex="1">
          <mxGeometry x="800" y="934" width="30" height="26" as="geometry" />
        </mxCell>
        <mxCell id="pcr2c5WoO0c583DG9mJp-25" style="edgeStyle=orthogonalEdgeStyle;rounded=0;orthogonalLoop=1;jettySize=auto;html=1;exitX=1;exitY=0.5;exitDx=0;exitDy=0;strokeColor=#00CC00;strokeWidth=2;fontStyle=1;" parent="1" source="pcr2c5WoO0c583DG9mJp-23" target="MivnunldSzB1eyhNCLw8-124" edge="1">
          <mxGeometry relative="1" as="geometry" />
        </mxCell>
        <mxCell id="pcr2c5WoO0c583DG9mJp-23" value="RECEIVE SUCCESSFUL MULTIUSER OTP AUTHENTICATION CREATED NOTIFICATION ON EMAIL/PHONE" style="rounded=0;whiteSpace=wrap;html=1;fontStyle=1;direction=east;strokeWidth=2;" parent="1" vertex="1">
          <mxGeometry x="1180" y="173" width="148.25" height="71.25" as="geometry" />
        </mxCell>
        <mxCell id="pcr2c5WoO0c583DG9mJp-29" style="edgeStyle=orthogonalEdgeStyle;rounded=0;orthogonalLoop=1;jettySize=auto;html=1;exitX=0.5;exitY=0;exitDx=0;exitDy=0;entryX=0.5;entryY=1;entryDx=0;entryDy=0;strokeColor=#00CC00;strokeWidth=2;fontStyle=1;jumpStyle=arc;jumpSize=11;" parent="1" source="pcr2c5WoO0c583DG9mJp-26" target="pcr2c5WoO0c583DG9mJp-27" edge="1">
          <mxGeometry relative="1" as="geometry" />
        </mxCell>
        <mxCell id="pcr2c5WoO0c583DG9mJp-31" style="edgeStyle=orthogonalEdgeStyle;rounded=0;orthogonalLoop=1;jettySize=auto;html=1;exitX=1;exitY=0.5;exitDx=0;exitDy=0;strokeColor=#00CC00;strokeWidth=2;fontStyle=1;" parent="1" source="pcr2c5WoO0c583DG9mJp-26" target="MivnunldSzB1eyhNCLw8-124" edge="1">
          <mxGeometry relative="1" as="geometry" />
        </mxCell>
        <mxCell id="pcr2c5WoO0c583DG9mJp-26" value="RECEIVE MULTIUSER OTP AUTHENTICATION CREATION FAILURE NOTIFICATION ON EMAIL/PHONE" style="rounded=0;whiteSpace=wrap;html=1;fontStyle=1;direction=east;strokeWidth=2;" parent="1" vertex="1">
          <mxGeometry x="1340" y="280" width="148.25" height="71.25" as="geometry" />
        </mxCell>
        <mxCell id="pcr2c5WoO0c583DG9mJp-30" style="edgeStyle=orthogonalEdgeStyle;rounded=0;orthogonalLoop=1;jettySize=auto;html=1;exitX=1;exitY=0.5;exitDx=0;exitDy=0;strokeColor=#00CC00;strokeWidth=2;fontStyle=1;" parent="1" source="pcr2c5WoO0c583DG9mJp-27" target="MivnunldSzB1eyhNCLw8-124" edge="1">
          <mxGeometry relative="1" as="geometry" />
        </mxCell>
        <mxCell id="pcr2c5WoO0c583DG9mJp-27" value="RECEIVE MULTIUSER OTP AUTHENTICATION CREATION FAILURE NOTIFICATION ON EMAIL/PHONE" style="rounded=0;whiteSpace=wrap;html=1;fontStyle=1;direction=east;strokeWidth=2;" parent="1" vertex="1">
          <mxGeometry x="1340" y="114.38" width="148.25" height="71.25" as="geometry" />
        </mxCell>
        <mxCell id="MivnunldSzB1eyhNCLw8-110" value="" style="group" parent="1" vertex="1" connectable="0">
          <mxGeometry x="30" y="685" width="1660" height="60" as="geometry" />
        </mxCell>
        <mxCell id="MivnunldSzB1eyhNCLw8-99" value="IDS, IPS, HONEYPOT" style="shape=label;whiteSpace=wrap;html=1;boundedLbl=1;backgroundOutline=1;darkOpacity=0.05;darkOpacity2=0.1;fillColor=#f0a30a;strokeColor=#BD7000;rounded=0;fontColor=#000000;fontSize=12;fontStyle=1" parent="MivnunldSzB1eyhNCLw8-110" vertex="1">
          <mxGeometry x="-1" y="40" width="1661" height="20" as="geometry" />
        </mxCell>
        <mxCell id="uguF6MeAyuZhbsfF8n8q-2" value="" style="group" parent="1" vertex="1" connectable="0">
          <mxGeometry x="29" y="685" width="1661" height="40" as="geometry" />
        </mxCell>
        <mxCell id="uguF6MeAyuZhbsfF8n8q-1" value="API/ HTTPS (SSL/TLS)" style="shape=label;whiteSpace=wrap;html=1;boundedLbl=1;backgroundOutline=1;darkOpacity=0.05;darkOpacity2=0.1;fillColor=#f8cecc;strokeColor=#b85450;rounded=0;fontStyle=1" parent="uguF6MeAyuZhbsfF8n8q-2" vertex="1">
          <mxGeometry x="1" width="1660" height="20" as="geometry" />
        </mxCell>
        <mxCell id="MivnunldSzB1eyhNCLw8-98" value="SINGLE/ DUAL FIREWALL" style="shape=label;whiteSpace=wrap;html=1;boundedLbl=1;backgroundOutline=1;darkOpacity=0.05;darkOpacity2=0.1;fillColor=#e51400;fontColor=#ffffff;strokeColor=#B20000;rounded=0;fontStyle=1" parent="uguF6MeAyuZhbsfF8n8q-2" vertex="1">
          <mxGeometry y="20" width="1661" height="20" as="geometry" />
        </mxCell>
        <mxCell id="gTgN-q0qI4qXBzYvAIb3-1" value="BIND AND ACTIVATE MULTIUSER OTP AUTHENTICATOR" style="rounded=0;whiteSpace=wrap;html=1;fontStyle=1;strokeWidth=2;fontSize=11;shape=label;boundedLbl=1;backgroundOutline=1;size=9.769240159254764;" parent="1" vertex="1">
          <mxGeometry x="1038" y="984.08" width="130" height="41.42" as="geometry" />
        </mxCell>
        <mxCell id="gTgN-q0qI4qXBzYvAIb3-2" style="edgeStyle=orthogonalEdgeStyle;rounded=0;orthogonalLoop=1;jettySize=auto;html=1;exitX=0.5;exitY=0;exitDx=0;exitDy=0;entryX=0.5;entryY=1;entryDx=0;entryDy=0;entryPerimeter=0;strokeColor=#00CC00;strokeWidth=2;fontStyle=1;" parent="1" source="gTgN-q0qI4qXBzYvAIb3-1" target="vF7kmwuw0M7c39ZWC5oO-29" edge="1">
          <mxGeometry relative="1" as="geometry" />
        </mxCell>
        <mxCell id="HhByO9W-DRbGtFXNU7FZ-1" value="" style="edgeStyle=orthogonalEdgeStyle;rounded=0;orthogonalLoop=1;jettySize=auto;html=1;exitX=0.5;exitY=1;exitDx=0;exitDy=0;entryX=0.5;entryY=0;entryDx=0;entryDy=0;strokeColor=#FF2617;strokeWidth=2;fontStyle=1;" parent="1" source="pcr2c5WoO0c583DG9mJp-9" target="pcr2c5WoO0c583DG9mJp-16" edge="1">
          <mxGeometry relative="1" as="geometry">
            <Array as="points" />
            <mxPoint x="480" y="883" as="sourcePoint" />
            <mxPoint x="480" y="1005" as="targetPoint" />
          </mxGeometry>
        </mxCell>
        <mxCell id="pcr2c5WoO0c583DG9mJp-16" value="EXCEPTION AND ERROR HANDLING (COUNTER)" style="rounded=0;whiteSpace=wrap;html=1;fontStyle=1;strokeWidth=2;fontSize=11;shape=label;boundedLbl=1;backgroundOutline=1;size=9.769240159254764;" parent="1" vertex="1">
          <mxGeometry x="415" y="911.83" width="130" height="41.42" as="geometry" />
        </mxCell>
        <mxCell id="Ursh4TL0P_tl2U7TRK4R-1" value="&lt;div style=&quot;font-size: 18px;&quot;&gt;&lt;font style=&quot;font-size: 18px;&quot;&gt;&lt;b style=&quot;font-size: 18px;&quot;&gt;Purpose:&lt;/b&gt;&lt;/font&gt;&lt;/div&gt;&lt;div style=&quot;font-size: 18px;&quot;&gt;This SOP d&lt;span style=&quot;background-color: rgb(255, 255, 255); color: rgb(13, 13, 13); font-size: 18px; white-space-collapse: preserve;&quot;&gt;etails the creation of one-time passwords for multi-user environments.&lt;/span&gt;&lt;br style=&quot;font-size: 18px;&quot;&gt;&lt;/div&gt;" style="whiteSpace=wrap;html=1;align=left;rounded=0;strokeWidth=2;verticalAlign=middle;fontFamily=Helvetica;fontSize=18;fontStyle=0;" vertex="1" parent="1">
          <mxGeometry x="10" y="-40" width="1700" height="60" as="geometry" />
        </mxCell>
      </root>
    </mxGraphModel>
  </diagram>
</mxfile>
